<svg width="99" height="99" viewBox="0 0 99 99" fill="none" xmlns="http://www.w3.org/2000/svg">
<g filter="url(#filter0_d)">
<path fill-rule="evenodd" clip-rule="evenodd" d="M51.8277 19.3059C53.0675 19.457 54.0598 19.5531 55.2478 19.8025C58.1681 20.4125 61.1491 21.6698 63.5779 23.1634C65.4665 24.3472 67.5669 26.0822 68.8785 27.5019C69.1703 27.8064 69.5344 28.2117 69.7764 28.5151C70.3339 29.1732 70.866 29.8555 71.4441 30.7127C75.9972 37.4199 77.625 46.0261 74.2944 55.1457C73.5009 57.3395 71.5098 60.8736 69.9837 62.4553C69.3469 63.1619 69.0892 63.5786 68.1492 64.5022C66.4471 66.1794 65.9447 66.4169 64.4814 68.5465C63.5052 69.991 62.5913 72.0083 62.3207 74.1638C62.1446 75.4021 62.2424 76.6215 62.116 77.8609C61.9918 79.001 61.7461 80.0142 61.3755 81.0496C59.311 86.818 53.2402 90.4623 47.07 89.5332C40.7506 88.601 36.1408 83.3583 35.7674 77.6611C35.6701 76.4169 35.8218 75.1532 35.724 73.9337C35.47 70.7483 34.2318 68.2371 32.3437 65.8857C31.1817 64.4443 30.3233 63.904 28.7031 61.8068C26.5746 59.0775 24.6892 55.4592 23.8075 51.4154C21.7506 41.9552 24.9441 33.4289 29.9862 27.9239C33.8324 23.6848 38.7423 20.8351 44.6851 19.6476C46.6573 19.2681 49.7452 19.0371 51.8277 19.3059ZM50.9688 1.62382C52.7282 1.88563 53.6326 2.60087 54.3279 3.7836C55.1436 5.14285 54.8822 6.87619 54.8434 8.66404C54.7986 10.725 54.9229 11.8705 53.8247 13.213C51.8832 15.6055 47.9883 15.2227 46.554 12.5831C45.7404 11.1245 46.0218 9.61517 46.0639 7.67833C46.1049 5.79114 45.9606 4.42163 47.1063 3.17953C47.9469 2.25375 49.259 1.36308 50.9688 1.62382ZM93.6563 47.3681C93.4775 47.5878 93.417 48.0834 93.2869 48.3538C91.8554 51.3039 89.1057 50.8467 86.5959 50.7921C84.6576 50.75 83.5102 50.9238 82.1662 49.8512C79.8918 48.1125 79.8442 44.5837 82.3453 42.75C83.6088 41.8086 85.0226 41.9635 86.7869 42.0018C87.5324 42.018 88.7775 41.9209 89.395 42.1082C89.5933 42.1373 90.5883 42.1093 91.4224 42.6242C91.9864 42.9843 91.6936 42.7295 92.1814 43.1625C93.5482 44.3349 93.377 45.3498 93.6941 45.6299L93.6563 47.3681ZM79.2426 13.9143C83.1256 14.8433 83.5012 19.2984 81.4695 21.2666C80.5042 22.2145 79.5659 23.0636 78.4482 24.1573C76.5181 26.0282 74.3762 26.2053 72.1748 24.5427C71.7831 24.2609 71.2283 23.4787 70.9695 22.8023C69.889 19.897 71.8143 18.2495 73.3376 16.792C75.0128 15.2136 76.5221 13.259 79.2426 13.9143ZM5.60219 43.7161C5.85554 43.498 5.7437 42.9241 6.56101 41.9233C8.19454 39.9714 10.3743 40.3417 12.8593 40.3957C14.6733 40.4351 15.9671 40.3887 17.188 41.4089C18.1155 42.1992 18.8621 43.3085 18.7741 45.0705C18.7142 46.684 17.844 47.8327 16.8597 48.5069C15.472 49.4456 14.3084 49.2216 12.3949 49.18C10.0094 49.1282 7.83936 49.4537 6.34562 47.2599C5.69518 46.3018 5.80159 45.9811 5.61251 45.5298L5.56442 45.4543L5.60219 43.7161ZM23.305 12.7487C25.0105 13.2081 25.5383 14.0891 26.7057 15.2821C27.7029 16.2974 28.8731 17.3663 29.3679 18.6192C30.0292 20.2235 29.5171 22.0508 28.5491 23.1228C27.6832 24.0729 25.9751 24.8805 24.2188 24.4697C22.6355 24.1123 21.6933 22.8497 20.7938 21.9109C20.2833 21.3781 19.8458 20.9215 19.3601 20.3892C18.8496 19.8564 18.4347 19.4996 18.0803 18.6472C17.4682 17.0688 17.8576 15.1643 18.8759 14.0685C19.7418 13.1185 21.3035 12.1835 23.305 12.7487ZM51.3131 28.114C54.5603 28.5572 56.8319 29.2773 59.5028 31.0743C61.6588 32.5372 63.4572 34.4395 64.824 36.7548C67.9168 42.0142 68.0699 48.7003 65.0179 54.1492C64.6814 54.7629 64.3718 55.2779 63.9624 55.8156C63.7825 56.0849 63.5513 56.4277 63.3973 56.648C63.2704 56.7694 63.1688 56.8666 63.0667 56.9886C63.0154 57.062 62.99 57.0863 62.9382 57.1845C62.5541 57.6979 60.6278 59.395 59.9407 60.1254C55.9211 64.3359 53.4984 69.4258 53.3614 75.733C53.3166 77.794 52.9979 78.7311 51.857 79.7497C50.8938 80.5983 49.2651 81.184 47.6358 80.6517C46.3031 80.2004 45.2799 79.2342 44.8099 77.9818C44.1546 76.1043 45.1636 73.1451 43.6017 68.3661C43.1603 66.9405 42.6169 65.6368 41.9956 64.4806C41.2074 62.9977 39.7379 60.8293 38.6451 59.6379C38.1832 59.1558 37.8212 58.6511 37.3085 58.2176C35.6231 56.8395 33.8014 53.7194 33.0034 51.5407C30.7047 45.2055 32.5109 38.7358 35.9838 34.5134C37.5417 32.6095 39.6177 30.8908 42.1296 29.7032C44.5659 28.5636 48.0902 27.6962 51.3131 28.114Z" fill="white"/>
</g>
<defs>
<filter id="filter0_d" x="0.624512" y="0.624573" width="98.0058" height="98.0058" filterUnits="userSpaceOnUse" color-interpolation-filters="sRGB">
<feFlood flood-opacity="0" result="BackgroundImageFix"/>
<feColorMatrix in="SourceAlpha" type="matrix" values="0 0 0 0 0 0 0 0 0 0 0 0 0 0 0 0 0 0 127 0"/>
<feOffset dy="4"/>
<feGaussianBlur stdDeviation="2"/>
<feColorMatrix type="matrix" values="0 0 0 0 0 0 0 0 0 0 0 0 0 0 0 0 0 0 0.25 0"/>
<feBlend mode="normal" in2="BackgroundImageFix" result="effect1_dropShadow"/>
<feBlend mode="normal" in="SourceGraphic" in2="effect1_dropShadow" result="shape"/>
</filter>
</defs>
</svg>
