<svg width="398" height="114" viewBox="0 0 398 114" fill="none" xmlns="http://www.w3.org/2000/svg">
<g filter="url(#filter0_d)">
<path fill-rule="evenodd" clip-rule="evenodd" d="M349.14 22.6025C350.362 22.8623 351.342 23.0456 352.503 23.3988C355.359 24.2639 358.217 25.7791 360.505 27.4812C362.281 28.8269 364.221 30.7403 365.402 32.2702C365.666 32.5992 365.993 33.0351 366.207 33.3586C366.704 34.0633 367.174 34.7899 367.674 35.6947C371.618 42.7773 372.481 51.4935 368.359 60.2839C367.375 62.3991 365.08 65.7439 363.42 67.1848C362.724 67.8325 362.43 68.2249 361.413 69.062C359.569 70.5826 359.048 70.7749 357.402 72.7671C356.303 74.1199 355.214 76.0487 354.755 78.1719C354.47 79.3899 354.46 80.6132 354.225 81.8367C354.001 82.9613 353.666 83.9489 353.206 84.9476C350.641 90.5115 344.272 93.6062 338.208 92.1366C331.995 90.6507 327.866 85.022 327.996 79.314C328.009 78.066 328.272 76.8206 328.282 75.5973C328.31 72.4019 327.298 69.7913 325.625 67.2825C324.594 65.7444 323.787 65.1304 322.358 62.8985C320.478 59.9922 318.919 56.2216 318.398 52.1159C317.183 42.5112 321.116 34.2997 326.624 29.2608C330.829 25.3774 335.971 22.9718 341.995 22.3129C343.993 22.1088 347.09 22.151 349.14 22.6025ZM349.844 4.91352C351.574 5.32948 352.411 6.12169 353 7.36112C353.692 8.78701 353.279 10.4905 353.083 12.268C352.856 14.317 352.879 15.469 351.667 16.7094C349.522 18.9214 345.676 18.1966 344.48 15.4407C343.798 13.9161 344.212 12.4375 344.424 10.5119C344.632 8.63568 344.609 7.25879 345.859 6.12256C346.778 5.27452 348.164 4.50302 349.844 4.91352ZM388.331 54.2441C388.134 54.4472 388.03 54.9354 387.876 55.1933C386.19 58.0057 383.492 57.3077 380.996 57.0321C379.069 56.8192 377.911 56.8912 376.667 55.7042C374.555 53.7717 374.819 50.2525 377.472 48.6465C378.813 47.8201 380.208 48.0991 381.962 48.2929C382.703 48.3748 383.952 48.3878 384.55 48.6288C384.745 48.6753 385.739 48.7351 386.524 49.3217C387.054 49.7301 386.785 49.4505 387.233 49.9247C388.491 51.2132 388.231 52.2089 388.522 52.516L388.331 54.2441ZM376.924 19.6495C380.71 20.9173 380.691 25.3882 378.494 27.1695C377.449 28.0286 376.439 28.7917 375.229 29.7825C373.142 31.476 370.993 31.4634 368.946 29.6132C368.581 29.2979 368.097 28.4699 367.899 27.7733C367.079 24.784 369.142 23.3128 370.788 21.9953C372.596 20.5707 374.272 18.7568 376.924 19.6495ZM300.942 42.8411C301.214 42.6462 301.153 42.0647 302.055 41.1399C303.855 39.3396 305.993 39.9007 308.464 40.1736C310.267 40.3728 311.56 40.4407 312.686 41.5646C313.541 42.4336 314.187 43.6045 313.943 45.3518C313.742 46.9537 312.773 48.0212 311.733 48.606C310.268 49.4187 309.129 49.0929 307.227 48.8828C304.855 48.6208 302.665 48.7537 301.37 46.4367C300.807 45.4249 300.941 45.1149 300.793 44.6487L300.751 44.5692L300.942 42.8411ZM321.307 13.5555C322.965 14.1635 323.413 15.0876 324.471 16.3789C325.375 17.4783 326.446 18.6461 326.829 19.9378C327.346 21.5942 326.675 23.3691 325.616 24.3517C324.67 25.2217 322.897 25.8755 321.184 25.3114C319.638 24.8158 318.811 23.475 317.998 22.4606C317.536 21.8848 317.141 21.3914 316.704 20.8183C316.242 20.2426 315.86 19.8506 315.582 18.9703C315.112 17.3441 315.668 15.4814 316.779 14.4796C317.725 13.6096 319.363 12.816 321.307 13.5555ZM347.851 31.3309C351.046 32.0587 353.246 32.9763 355.748 35.0019C357.766 36.6492 359.39 38.7027 360.547 41.1295C363.164 46.6411 362.727 53.3147 359.206 58.4732C358.817 59.0549 358.463 59.5405 358.008 60.04C357.805 60.2924 357.545 60.6135 357.372 60.8193C357.235 60.9291 357.125 61.0169 357.013 61.1294C356.955 61.198 356.927 61.22 356.867 61.3133C356.439 61.7908 354.371 63.3115 353.622 63.9784C349.247 67.818 346.385 72.6744 345.692 78.9449C345.466 80.994 345.065 81.8993 343.839 82.8133C342.805 83.5737 341.131 84.0135 339.555 83.3396C338.267 82.7726 337.333 81.7198 336.976 80.4309C336.488 78.5029 337.754 75.6442 336.62 70.7461C336.306 69.2871 335.88 67.9406 335.363 66.7341C334.708 65.1875 333.436 62.8979 332.452 61.6148C332.035 61.0939 331.719 60.5592 331.246 60.0822C329.689 58.5608 328.149 55.2922 327.547 53.0516C325.816 46.5384 328.185 40.2532 332.017 36.3535C333.737 34.5944 335.956 33.0654 338.563 32.104C341.09 31.1838 344.678 30.6304 347.851 31.3309Z" fill="white"/>
</g>
<g filter="url(#filter1_d)">
<path d="M18.128 98.0079C14.712 98.0079 11.576 97.1119 8.72 95.3199C5.864 93.5279 4.436 90.2799 4.436 85.5759C4.436 79.9199 6.76 75.9159 11.408 73.5639C16.056 71.1559 22.636 69.9519 31.148 69.9519V66.8439C31.148 64.8839 30.7 63.3719 29.804 62.3079C28.964 61.2439 27.34 60.7119 24.932 60.7119C22.356 60.7119 20.508 61.1039 19.388 61.8879C18.324 62.6719 17.792 63.5959 17.792 64.6599V65.9199H6.704C6.648 65.5839 6.62 64.9679 6.62 64.0719C6.62 60.3759 8.244 57.4079 11.492 55.1679C14.796 52.9279 19.164 51.8079 24.596 51.8079C30.644 51.8079 35.152 53.0399 38.12 55.5039C41.144 57.9679 42.656 61.5239 42.656 66.1719V85.6599C42.656 86.6679 42.936 87.4239 43.496 87.9279C44.056 88.3759 44.756 88.5999 45.596 88.5999H47.948V96.6639C46.156 97.5599 43.944 98.0079 41.312 98.0079C39.016 98.0079 37.084 97.5039 35.516 96.4959C34.004 95.4879 32.968 94.0599 32.408 92.2119H31.904C30.28 94.1159 28.404 95.5719 26.276 96.5799C24.204 97.5319 21.488 98.0079 18.128 98.0079ZM21.74 88.9359C24.988 88.9359 27.368 88.0399 28.88 86.2479C30.392 84.3999 31.148 81.9639 31.148 78.9399V77.5959C21.124 77.5959 16.112 79.8359 16.112 84.3159C16.112 85.7159 16.56 86.8359 17.456 87.6759C18.408 88.5159 19.836 88.9359 21.74 88.9359ZM54.6398 52.8159H64.4678L65.3078 58.6119H65.8958C69.4798 54.0759 74.0718 51.8079 79.6718 51.8079C84.2078 51.8079 87.7638 53.0399 90.3398 55.5039C92.9718 57.9679 94.2878 61.9159 94.2878 67.3479V96.9999H82.7798V69.7839C82.7798 67.0399 82.1358 65.0519 80.8478 63.8199C79.5598 62.5879 77.6558 61.9719 75.1358 61.9719C72.5598 61.9719 70.4038 62.8959 68.6678 64.7439C66.9878 66.5359 66.1478 68.7759 66.1478 71.4639V96.9999H54.6398V52.8159ZM117.835 98.0079C113.691 98.0079 110.723 96.8879 108.931 94.6479C107.139 92.4079 106.243 89.5799 106.243 86.1639V62.2239H100.951V52.8159H106.495L108.427 40.3839H117.751V52.8159H125.395V62.2239H117.751V84.9879C117.751 87.3959 118.955 88.5999 121.363 88.5999H125.395V96.6639C124.443 96.9999 123.239 97.3079 121.783 97.5879C120.383 97.8679 119.067 98.0079 117.835 98.0079ZM153.62 98.0079C146.06 98.0079 140.432 96.1319 136.736 92.3799C133.04 88.6279 131.192 82.8039 131.192 74.9079C131.192 67.0119 133.04 61.1879 136.736 57.4359C140.432 53.6839 146.06 51.8079 153.62 51.8079C161.18 51.8079 166.808 53.6839 170.504 57.4359C174.256 61.1879 176.132 67.0119 176.132 74.9079C176.132 82.8039 174.256 88.6279 170.504 92.3799C166.808 96.1319 161.18 98.0079 153.62 98.0079ZM153.62 88.5999C157.372 88.5999 160.088 87.5359 161.768 85.4079C163.448 83.2239 164.288 79.9479 164.288 75.5799V74.2359C164.288 69.8679 163.448 66.6199 161.768 64.4919C160.088 62.3079 157.372 61.2159 153.62 61.2159C149.868 61.2159 147.152 62.3079 145.472 64.4919C143.848 66.6199 143.036 69.8679 143.036 74.2359V75.5799C143.036 79.9479 143.848 83.2239 145.472 85.4079C147.152 87.5359 149.868 88.5999 153.62 88.5999ZM185.316 52.8159H195.144L195.984 58.6119H196.572C200.156 54.0759 204.748 51.8079 210.348 51.8079C214.884 51.8079 218.44 53.0399 221.016 55.5039C223.648 57.9679 224.964 61.9159 224.964 67.3479V96.9999H213.456V69.7839C213.456 67.0399 212.812 65.0519 211.524 63.8199C210.236 62.5879 208.332 61.9719 205.812 61.9719C203.236 61.9719 201.08 62.8959 199.344 64.7439C197.664 66.5359 196.824 68.7759 196.824 71.4639V96.9999H185.316V52.8159ZM236.583 36.2679H248.091V47.1879H236.583V36.2679ZM236.583 52.8159H248.091V96.9999H236.583V52.8159ZM279.702 98.0079C272.142 98.0079 266.514 96.1319 262.818 92.3799C259.122 88.6279 257.274 82.8039 257.274 74.9079C257.274 67.0119 259.122 61.1879 262.818 57.4359C266.514 53.6839 272.142 51.8079 279.702 51.8079C287.262 51.8079 292.89 53.6839 296.586 57.4359C300.338 61.1879 302.214 67.0119 302.214 74.9079C302.214 82.8039 300.338 88.6279 296.586 92.3799C292.89 96.1319 287.262 98.0079 279.702 98.0079ZM279.702 88.5999C283.454 88.5999 286.17 87.5359 287.85 85.4079C289.53 83.2239 290.37 79.9479 290.37 75.5799V74.2359C290.37 69.8679 289.53 66.6199 287.85 64.4919C286.17 62.3079 283.454 61.2159 279.702 61.2159C275.95 61.2159 273.234 62.3079 271.554 64.4919C269.93 66.6199 269.118 69.8679 269.118 74.2359V75.5799C269.118 79.9479 269.93 83.2239 271.554 85.4079C273.234 87.5359 275.95 88.5999 279.702 88.5999Z" fill="white"/>
</g>
<defs>
<filter id="filter0_d" x="292" y="6.10352e-05" width="105.255" height="105.255" filterUnits="userSpaceOnUse" color-interpolation-filters="sRGB">
<feFlood flood-opacity="0" result="BackgroundImageFix"/>
<feColorMatrix in="SourceAlpha" type="matrix" values="0 0 0 0 0 0 0 0 0 0 0 0 0 0 0 0 0 0 127 0"/>
<feOffset dy="4"/>
<feGaussianBlur stdDeviation="2"/>
<feColorMatrix type="matrix" values="0 0 0 0 0 0 0 0 0 0 0 0 0 0 0 0 0 0 0.25 0"/>
<feBlend mode="normal" in2="BackgroundImageFix" result="effect1_dropShadow"/>
<feBlend mode="normal" in="SourceGraphic" in2="effect1_dropShadow" result="shape"/>
</filter>
<filter id="filter1_d" x="0.436001" y="36.2679" width="305.778" height="69.74" filterUnits="userSpaceOnUse" color-interpolation-filters="sRGB">
<feFlood flood-opacity="0" result="BackgroundImageFix"/>
<feColorMatrix in="SourceAlpha" type="matrix" values="0 0 0 0 0 0 0 0 0 0 0 0 0 0 0 0 0 0 127 0"/>
<feOffset dy="4"/>
<feGaussianBlur stdDeviation="2"/>
<feColorMatrix type="matrix" values="0 0 0 0 0 0 0 0 0 0 0 0 0 0 0 0 0 0 0.25 0"/>
<feBlend mode="normal" in2="BackgroundImageFix" result="effect1_dropShadow"/>
<feBlend mode="normal" in="SourceGraphic" in2="effect1_dropShadow" result="shape"/>
</filter>
</defs>
</svg>
